<svg xmlns="http://www.w3.org/2000/svg" viewBox="0 0 1200 600" fill="none">
  <defs>
    <linearGradient id="g" x1="0" y1="0" x2="1" y2="1">
      <stop offset="0%" stop-color="#2a4228"/>
      <stop offset="50%" stop-color="#3d5c3a"/>
      <stop offset="100%" stop-color="#1e3d1c"/>
    </linearGradient>
  </defs>
  <rect width="1200" height="600" fill="url(#g)"/>
  <circle cx="900" cy="300" r="220" fill="#c9a227" opacity="0.12"/>
  <text x="80" y="120" font-family="Georgia,serif" font-size="72" font-weight="700" fill="#e8c547">FIAFI</text>
  <text x="80" y="175" font-family="Arial,sans-serif" font-size="22" fill="#f5f0e6" letter-spacing="4">HUILE D'OLIVE EXTRA VIERGE</text>
  <text x="80" y="220" font-family="Arial,sans-serif" font-size="16" fill="#c9a227"><ė<÷ Distribution France · Tunisie</text>
  <rect x="80" y="260" width="180" height="44" rx="22" fill="#c9a227"/>
  <text x="170" y="288" text-anchor="middle" font-family="Arial,sans-serif" font-size="14" font-weight="700" fill="#2a4228">COMMERCE EN GROS</text>
  <g transform="translate(720,80)">
    <path d="M155 95h90v28c0 8-6 14-14 14h-62c-8 0-14-6-14-14V95z" fill="#2a4228"/>
    <rect x="148" y="78" width="104" height="22" rx="6" fill="#5a7d52"/>
    <path d="M130 137h140c12 0 22 10 22 22v200c0 22-18 40-40 40h-100c-22 0-40-18-40-40V159c0-12 10-22 22-22z" fill="#faf8f4" stroke="#e8c547" stroke-width="3"/>
    <rect x="155" y="200" width="90" height="120" rx="4" fill="#c9a227" opacity="0.9"/>
    <text x="200" y="250" text-anchor="middle" font-family="Georgia,serif" font-size="24" font-weight="700" fill="#2a4228">FIAFI</text>
  </g>
</svg>
