<svg xmlns="http://www.w3.org/2000/svg" viewBox="0 0 1200 600" fill="none">
  <defs>
    <linearGradient id="g" x1="0" y1="0" x2="1" y2="1">
      <stop offset="0%" stop-color="#2a4228"/>
      <stop offset="50%" stop-color="#3d5c3a"/>
      <stop offset="100%" stop-color="#1e3d1c"/>
    </linearGradient>
  </defs>
  <rect width="1200" height="600" fill="url(#g)"/>
  <rect y="0" width="1200" height="6" fill="#00a1de"/>
  <rect y="6" width="1200" height="6" fill="#ffffff"/>
  <rect y="12" width="1200" height="6" fill="#ed2939"/>
  <text x="80" y="110" font-family="Georgia,serif" font-size="64" font-weight="700" fill="#e8c547">FAYAFI</text>
  <text x="80" y="160" font-family="Arial,sans-serif" font-size="20" fill="#f5f0e6">Huile d'olive extra vierge / Natives Olivenöl extra</text>
  <text x="80" y="200" font-family="Arial,sans-serif" font-size="15" fill="#c9a227"><ń<ú Luxembourg &amp; Grande Région · Tunisie</text>
  <rect x="80" y="240" width="200" height="44" rx="22" fill="#c9a227"/>
  <text x="180" y="268" text-anchor="middle" font-family="Arial,sans-serif" font-size="13" font-weight="700" fill="#2a4228">GROSSHANDEL / GROS</text>
  <g transform="translate(720,80)">
    <path d="M130 137h140c12 0 22 10 22 22v200c0 22-18 40-40 40h-100c-22 0-40-18-40-40V159c0-12 10-22 22-22z" fill="#faf8f4" stroke="#e8c547" stroke-width="3"/>
    <rect x="155" y="200" width="90" height="120" rx="4" fill="#c9a227" opacity="0.9"/>
    <text x="200" y="250" text-anchor="middle" font-family="Georgia,serif" font-size="24" font-weight="700" fill="#2a4228">FAYAFI</text>
  </g>
</svg>
