<svg xmlns="http://www.w3.org/2000/svg" viewBox="0 0 400 500" fill="none">
  <defs>
    <linearGradient id="bg" x1="0" y1="0" x2="0" y2="1">
      <stop offset="0%" stop-color="#f5f0e6"/>
      <stop offset="100%" stop-color="#e8dfd0"/>
    </linearGradient>
    <linearGradient id="oil" x1="0" y1="0" x2="0" y2="1">
      <stop offset="0%" stop-color="#c9a227"/>
      <stop offset="100%" stop-color="#8b6914"/>
    </linearGradient>
  </defs>
  <rect width="400" height="500" fill="url(#bg)"/>
  <rect x="0" y="0" width="400" height="6" fill="#00a1de"/>
  <rect x="0" y="6" width="400" height="6" fill="#ffffff"/>
  <rect x="0" y="12" width="400" height="6" fill="#ed2939"/>
  <ellipse cx="200" cy="420" rx="120" ry="24" fill="#2a4228" opacity="0.12"/>
  <path d="M155 95h90v28c0 8-6 14-14 14h-62c-8 0-14-6-14-14V95z" fill="#2a4228"/>
  <rect x="148" y="78" width="104" height="22" rx="6" fill="#3d5c3a"/>
  <path d="M130 137h140c12 0 22 10 22 22v200c0 22-18 40-40 40h-100c-22 0-40-18-40-40V159c0-12 10-22 22-22z" fill="#faf8f4" stroke="#3d5c3a" stroke-width="3"/>
  <rect x="155" y="200" width="90" height="120" rx="4" fill="url(#oil)" opacity="0.85"/>
  <text x="200" y="250" text-anchor="middle" font-family="Georgia,serif" font-size="28" font-weight="700" fill="#2a4228">FIAFI</text>
  <text x="200" y="278" text-anchor="middle" font-family="Arial,sans-serif" font-size="11" fill="#3d5c3a">NATIV EXTRA Ę TUNESIEN</text>
  <text x="200" y="48" text-anchor="middle" font-family="Arial,sans-serif" font-size="12" fill="#2a4228" letter-spacing="2"><±<· LUXEMBOURG</text>
</svg>
