<svg xmlns="http://www.w3.org/2000/svg" viewBox="0 0 280 360" fill="none">
  <rect width="280" height="360" fill="#f5f0e6"/>
  <ellipse cx="140" cy="320" rx="70" ry="12" fill="#2a4228" opacity="0.1"/>
  <path d="M115 70h50v16c0 5-4 9-9 9h-32c-5 0-9-4-9-9V70z" fill="#3d5c3a"/>
  <path d="M95 96h110c8 0 14 6 14 14v150c0 16-13 28-28 28h-94c-15 0-28-12-28-28V110c0-8 6-14 14-14z" fill="#fff" stroke="#3d5c3a" stroke-width="2"/>
  <rect x="115" y="140" width="50" height="80" fill="#c9a227" opacity="0.9"/>
  <text x="140" y="185" text-anchor="middle" font-family="Georgia,serif" font-size="14" fill="#2a4228" font-weight="700">FIAFI</text>
  <text x="140" y="250" text-anchor="middle" font-family="Arial,sans-serif" font-size="16" fill="#2a4228" font-weight="700">250 ml</text>
  <text x="140" y="270" text-anchor="middle" font-family="Arial,sans-serif" font-size="11" fill="#5a7d52">Marasca</text>
</svg>
